<svg width="50" height="50" viewBox="0 0 50 50" fill="none" xmlns="http://www.w3.org/2000/svg">
<path d="M25 0L25.856 15.4893L29.4639 0.40176L27.5404 15.795L33.7844 1.59413L29.1432 16.3965L37.8225 3.53878L30.6129 17.2746L41.4485 6.17321L31.9021 18.4009L44.5458 9.41276L32.9695 19.7394L47.0149 13.1533L33.7807 21.2469L48.7764 17.2746L34.3097 22.8751L49.7737 21.6442L34.5395 24.5716L49.9748 26.1216L34.4627 26.2818L49.3732 30.563L34.0818 27.9508L47.9882 34.8256L33.4089 29.525L45.8643 38.7724L32.4658 30.9538L43.0699 42.2766L31.2828 32.1912L39.6946 45.2254L29.8978 33.1975L35.8471 47.5242L28.3553 33.9402L31.6509 49.0991L26.7051 34.3957L27.241 49.8994L25 34.5491L22.759 49.8994L23.2949 34.3957L18.3491 49.0991L21.6447 33.9402L14.1529 47.5242L20.1022 33.1975L10.3054 45.2254L18.7172 32.1912L6.93013 42.2766L17.5342 30.9538L4.13567 38.7724L16.5911 29.525L2.01181 34.8256L15.9182 27.9508L0.626802 30.563L15.5373 26.2818L0.0251732 26.1216L15.4605 24.5716L0.226255 21.6442L15.6903 22.8751L1.22359 17.2746L16.2193 21.2469L2.98511 13.1533L17.0305 19.7394L5.45421 9.41276L18.0979 18.4009L8.55153 6.17321L19.3871 17.2746L12.1775 3.53878L20.8568 16.3965L16.2156 1.59413L22.4596 15.795L20.5361 0.40176L24.144 15.4893L25 0Z" fill="#EC894C"/>
</svg>
