<svg width="54" height="55" viewBox="0 0 54 55" fill="none" xmlns="http://www.w3.org/2000/svg">
<path d="M27.0773 0.760616C12.4041 -0.00837398 0.447205 11.3383 0.447205 26.0317C0.447205 40.725 12.4041 53.325 27.0773 54.0939C41.7505 54.8629 53.7074 43.5162 53.7074 28.8229C53.7074 14.1296 41.7505 1.52961 27.0773 0.760616ZM37.7294 29.9855L29.0746 29.532V38.1986C29.0746 39.292 28.1692 40.1512 27.0773 40.0939C25.9855 40.0367 25.0801 39.0826 25.0801 37.9893V29.3226L16.4253 28.869C15.3334 28.8118 14.428 27.8577 14.428 26.7644C14.428 25.671 15.3334 24.8118 16.4253 24.869L25.0801 25.3226V16.6559C25.0801 15.5626 25.9855 14.7034 27.0773 14.7606C28.1692 14.8178 29.0746 15.772 29.0746 16.8653V25.532L37.7294 25.9855C38.8212 26.0428 39.7266 26.9969 39.7266 28.0902C39.7266 29.1835 38.8212 30.0428 37.7294 29.9855Z" fill="white"/>
</svg>
