<svg width="194" height="194" viewBox="0 0 194 194" fill="none" xmlns="http://www.w3.org/2000/svg">
<g filter="url(#filter0_f_5_2540)">
<path d="M97 4L100.184 61.6202L113.606 5.49454L106.45 62.7573L129.678 9.93016L112.413 64.995L144.7 17.1643L117.88 68.2614L158.188 26.9644L122.676 72.4515L169.71 39.0154L126.646 77.4306L178.895 52.9302L129.664 83.0386L185.448 68.2614L131.632 89.0954L189.158 84.5163L132.487 95.4063L189.906 101.172L132.201 101.768L187.668 117.694L130.784 107.977L182.516 133.551L128.281 113.833L174.615 148.233L124.773 119.148L164.22 161.269L120.372 123.751L151.664 172.239L115.22 127.495L137.351 180.79L109.482 130.258L121.741 186.649L103.343 131.952L105.336 189.626L97 132.523L88.6635 189.626L90.6572 131.952L72.2586 186.649L84.5182 130.258L56.6488 180.79L78.7804 127.495L42.336 172.239L73.6281 123.751L29.7801 161.269L69.2271 119.148L19.3847 148.233L65.7187 113.833L11.4839 133.551L63.2158 107.977L6.3317 117.694L61.7986 101.768L4.09364 101.172L61.5129 95.4063L4.84167 84.5163L62.3678 89.0954L8.55174 68.2614L64.3358 83.0386L15.1046 52.9302L67.3536 77.4306L24.2897 39.0154L71.3243 72.4515L35.8117 26.9644L76.1202 68.2614L49.3004 17.1643L81.5872 64.995L64.3221 9.93016L87.5496 62.7573L80.3942 5.49454L93.8158 61.6202L97 4Z" fill="#EC894C"/>
</g>
<defs>
<filter id="filter0_f_5_2540" x="0.0936279" y="0" width="193.813" height="193.625" filterUnits="userSpaceOnUse" color-interpolation-filters="sRGB">
<feFlood flood-opacity="0" result="BackgroundImageFix"/>
<feBlend mode="normal" in="SourceGraphic" in2="BackgroundImageFix" result="shape"/>
<feGaussianBlur stdDeviation="2" result="effect1_foregroundBlur_5_2540"/>
</filter>
</defs>
</svg>
