<svg width="30" height="31" viewBox="0 0 30 31" fill="none" xmlns="http://www.w3.org/2000/svg">
<path d="M25.1166 9.67867L10.85 2.54534C1.26665 -2.25466 -2.66668 1.67867 2.13332 11.262L3.58331 14.162C3.99998 15.012 3.99998 15.9953 3.58331 16.8453L2.13332 19.7287C-2.66668 29.312 1.24998 33.2453 10.85 28.4453L25.1166 21.312C31.5166 18.112 31.5166 12.8787 25.1166 9.67867ZM19.7333 16.7453H10.7333C10.05 16.7453 9.48331 16.1787 9.48331 15.4953C9.48331 14.812 10.05 14.2453 10.7333 14.2453L19.7333 14.2453C20.4166 14.2453 20.9833 14.812 20.9833 15.4953C20.9833 16.1787 20.4166 16.7453 19.7333 16.7453Z" fill="white"/>
</svg>
